HIERARCHY
ROOT Hips
{
  OFFSET 1.44925e-005 102.336 -0.101585
  CHANNELS 6 Xposition Yposition Zposition Zrotation Xrotation Yrotation
  JOINT LeftUpLeg
  {
    OFFSET 8.9458 -8.66707 0.101652
    CHANNELS 3 Zrotation Xrotation Yrotation
    JOINT LeftLeg
    {
      OFFSET 0 -44.4227 1.3727
      CHANNELS 3 Zrotation Xrotation Yrotation
      JOINT LeftFoot
      {
        OFFSET -0.253549 -42.0924 -1.46059
        CHANNELS 3 Zrotation Xrotation Yrotation
        JOINT LeftToes
        {
          OFFSET -0.04 -4.41509 8.4991
          CHANNELS 3 Zrotation Xrotation Yrotation
          End Site
          {
            OFFSET 0.08 -0.047448 9.77979
          }
        }
      }
    }
  }
  JOINT Spine
  {
    OFFSET 0 11.8905 0
    CHANNELS 3 Zrotation Xrotation Yrotation
    JOINT Spine1
    {
      OFFSET 0 25.6574 0.127663
      CHANNELS 3 Zrotation Xrotation Yrotation
      JOINT RightShoulder
      {
        OFFSET -8.99 -0.362252 -0.22
        CHANNELS 3 Zrotation Xrotation Yrotation
        JOINT RightArm
        {
          OFFSET -10.2827 -0.00338 0.322123
          CHANNELS 3 Zrotation Xrotation Yrotation
          JOINT RightForeArm
          {
            OFFSET -26.364 0.099144 -1.42434
            CHANNELS 3 Zrotation Xrotation Yrotation
            JOINT RightHand
            {
              OFFSET -22.0324 0.085362 1.02216
              CHANNELS 3 Zrotation Xrotation Yrotation
              End Site
              {
                OFFSET -13.3284 -0.6 1.50291
              }
            }
          }
        }
      }
      JOINT LeftShoulder1
      {
        OFFSET 8.99 -0.362252 -0.22
        CHANNELS 3 Zrotation Xrotation Yrotation
        JOINT LeftArm
        {
          OFFSET 10.2827 -0.00337999 0.322123
          CHANNELS 3 Zrotation Xrotation Yrotation
          JOINT LeftForeArm
          {
            OFFSET 26.2597 0.099144 -1.42434
            CHANNELS 3 Zrotation Xrotation Yrotation
            JOINT LeftHand
            {
              OFFSET 22.0902 0.085362 1.02216
              CHANNELS 3 Zrotation Xrotation Yrotation
              End Site
              {
                OFFSET 13.419 -0.6 1.50291
              }
            }
          }
        }
      }
      JOINT Head
      {
        OFFSET 0 8.73416 0.011341
        CHANNELS 3 Zrotation Xrotation Yrotation
        End Site
        {
          OFFSET -0.29 12.7742 2.51395
        }
      }
    }
  }
  JOINT RightUpLeg
  {
    OFFSET -8.9458 -8.66707 0.101652
    CHANNELS 3 Zrotation Xrotation Yrotation
    JOINT RightLeg
    {
      OFFSET 0 -44.4227 1.3727
      CHANNELS 3 Zrotation Xrotation Yrotation
      JOINT RightFoot
      {
        OFFSET 0.253549 -42.0924 -1.46059
        CHANNELS 3 Zrotation Xrotation Yrotation
        JOINT RightToes
        {
          OFFSET 0.04 -4.41509 8.4991
          CHANNELS 3 Zrotation Xrotation Yrotation
          End Site
          {
            OFFSET -0.08 -0.137448 9.77979
          }
        }
      }
    }
  }
}
MOTION
Frames:	19
Frame Time:	0.0333333
50.802 99.1443 3.62563 -7.76936 -3.58108 -96.4155 -9.62692 1.59567 -0.11839 0.616791 22.8503 20.851 -2.04377 -21.8234 -0.141071 -1.37048e-009 8.75213e-006 -1.47689e-008 -3.01959 17.9288 0.762986 -4.02248 -2.43734 0.708988 36.9873 1.78668 0.137802 42.0439 -24.8838 7.78018 11.7245 45.2502 -0.879996 -13.2405 9.23703 0.726961 -44.1259 3.52173 -3.43396 -26.5027 -13.0382 1.96223 4.0396 30.5079 -31.4105 5.82328 9.61819 -0.917488 -0.741434 -11.7054 -1.7297 -4.79414 -30.181 -2.40724 -4.07099 77.3143 -13.7862 9.17716 -10.0312 0.00843496 0.0462048 0.000530889 0.662642 
46.0635 99.0634 3.59651 -7.73401 -3.40796 -95.3378 -9.38668 6.10246 0.637837 0.471846 20.1215 19.3137 -1.12773 -23.0365 -0.0289076 -1.37048e-009 8.75213e-006 -1.47689e-008 -3.50412 18.079 0.167011 -2.3094 -2.6696 -0.124264 37.1395 1.78508 0.120783 38.1299 -23.3693 1.03234 10.5586 42.3738 2.69236 -13.3616 9.22033 0.822147 -43.696 3.49192 -3.43962 -26.317 -17.7065 1.01949 7.1379 31.982 -40.034 5.82328 9.61819 -0.917488 -0.315588 -11.8165 -1.43315 -4.87178 -33.2039 -4.23453 -2.44187 68.2365 -15.401 10.1665 -12.0776 0.196823 0.0462048 0.000530889 0.662642 
41.2311 98.6933 3.53765 -7.74488 -3.32863 -94.316 -9.20267 10.822 1.52654 0.372015 17.2052 17.7321 -0.469155 -24.5982 0.0645046 -1.37048e-009 8.75213e-006 -1.47689e-008 -3.72999 17.8215 -0.36983 -0.900384 -2.15388 -0.800711 37.308 1.78243 0.0989336 35.0654 -20.4819 -4.86702 9.42193 39.4894 5.89136 -13.5146 9.20686 0.870609 -43.3559 3.4635 -3.43436 -26.1711 -20.7208 -0.320747 9.30516 31.8243 -47.6252 5.82328 9.61819 -0.917488 0.156673 -12.4157 -1.38241 -5.16941 -34.266 -6.06181 -1.57145 56.0166 -15.4006 10.7974 -12.5562 0.264807 0.0462048 0.000530889 0.662642 
36.2734 97.9417 3.46159 -7.91811 -3.15686 -93.6049 -8.84822 15.7684 2.70045 0.125551 14.3659 16.0683 -0.763671 -26.3469 0.0176139 -1.37048e-009 8.75213e-006 -1.47689e-008 -3.42669 17.5181 -0.831884 0.0921349 -1.30796 -1.31586 37.3829 1.77923 0.0837096 32.8515 -18.8057 -9.71331 8.89329 38.0882 7.20959 -12.9437 9.26684 0.587746 -43.0432 3.44314 -3.44094 -26.105 -22.9056 -1.68965 11.2442 31.4763 -54.0032 5.82328 9.61819 -0.917488 0.418855 -13.1172 -1.42234 -4.97278 -33.7596 -7.09666 -1.14295 42.5078 -14.9276 10.7337 -12.5914 0.265676 0.0462048 0.000530889 0.662642 
31.0597 96.6373 3.22359 -8.41405 -3.25503 -92.7093 -8.56362 20.019 4.01356 0.0234957 14.1067 13.9755 -1.64903 -28.3997 -0.150161 -1.37048e-009 8.75213e-006 -1.47689e-008 -3.84669 17.5435 -1.22865 1.34659 -0.816861 -1.98138 37.3144 1.77327 0.0762161 30.602 -19.9954 -13.6525 9.17635 39.2501 6.28374 -11.8759 9.36245 0.168572 -42.7422 3.42474 -3.44962 -26.3341 -24.743 -2.63357 13.2046 31.2913 -58.9611 5.82328 9.61819 -0.917488 0.446521 -13.5763 -1.43223 -4.79932 -32.1149 -7.30876 -0.958958 31.2815 -14.7445 11.7336 -13.8053 0.432282 0.0462048 0.000530889 0.662642 
25.551 95.2365 2.7918 -8.81375 -3.40904 -90.9993 -7.91633 23.2706 4.96987 0.581123 16.2263 11.6184 -2.90487 -30.0973 -0.426534 -1.37048e-009 8.75213e-006 -1.47689e-008 -4.78367 17.3181 -1.77964 3.33093 -0.360271 -3.03454 37.1355 1.76183 0.0651126 28.1566 -23.0076 -17.0503 9.7 41.5075 4.195 -11.5058 9.39916 -0.0388965 -42.5465 3.40868 -3.44695 -26.8381 -26.028 -3.0335 14.5241 31.1777 -61.8415 5.82328 9.61819 -0.917488 0.35216 -13.7781 -1.54045 -4.75284 -30.0193 -7.46692 -0.931512 25.3914 -15.2275 12.9114 -15.3435 0.657808 0.0462048 0.000530889 0.662642 
19.7372 94.2237 2.3034 -8.65558 -2.81381 -89.0458 -6.2039 25.6505 4.63198 1.38125 19.0569 10.0484 -6.0647 -30.3299 -1.08532 -1.37048e-009 8.75213e-006 -1.47689e-008 -4.42219 16.1574 -2.56195 5.07304 0.33636 -4.09905 37.0289 1.74615 0.0381357 25.8216 -26.042 -20.3561 9.81381 42.324 2.33593 -11.9987 9.37878 -0.0664962 -42.5351 3.41263 -3.45673 -27.1335 -26.3004 -2.4233 14.8239 31.1701 -62.4087 5.82328 9.61819 -0.917488 0.109703 -13.4874 -1.8169 -3.87295 -28.2477 -8.03485 -0.934302 25.0024 -15.7814 11.3645 -14.6444 0.498934 0.0462048 0.000530889 0.662642 
13.6178 93.5884 1.84862 -8.23681 -1.06136 -88.0999 -3.19841 26.7924 3.0517 1.09186 23.4627 10.1211 -11.1173 -27.8393 -1.87243 -1.37048e-009 8.75213e-006 -1.47689e-008 -1.625 14.5496 -3.28534 5.22699 0.583853 -4.41633 37.1342 1.73655 0.00629103 23.7181 -28.5161 -23.363 9.54694 41.2523 1.10471 -12.2554 9.37652 -0.166377 -42.6329 3.44472 -3.50694 -27.0258 -25.6338 -0.241597 14.6157 31.4671 -61.1264 5.82328 9.61819 -0.917488 -0.398312 -12.4181 -2.02636 -1.42485 -27.4204 -8.18605 -0.986718 28.4343 -15.7924 6.51078 -11.0018 0.0122388 0.0462048 0.000530889 0.662642 
7.49411 93.2044 1.37334 -8.05327 0.979768 -88.6502 0.333114 25.4495 4.06111 0.729544 32.1339 9.68136 -13.8184 -20.4158 -1.49538 -1.37048e-009 8.75213e-006 -1.47689e-008 2.51124 13.5869 -3.55253 4.06053 0.0906736 -3.81625 37.3286 1.73738 -0.00797824 22.5408 -30.6394 -24.7426 9.25486 39.9651 0.216641 -11.921 9.41088 -0.368263 -42.7638 3.49157 -3.58167 -27.1136 -24.5398 2.7832 14.292 32.229 -58.223 5.82328 9.61819 -0.917488 -1.09701 -11.2429 -2.03097 1.98654 -27.3039 -7.01648 -1.03932 33.8919 -15.5782 1.03175 -8.14135 -0.183952 0.0462048 0.000530889 0.662642 
1.91647 93.1622 0.830089 -8.12723 3.27074 -89.5156 4.04598 20.3931 5.40556 1.07877 45.4618 10.8341 -11.8159 -6.97084 0.0573231 -1.37048e-009 8.75213e-006 -1.47689e-008 6.23643 13.4877 -3.556 3.22435 -0.072622 -3.02082 37.4424 1.74166 -0.00725184 23.6627 -32.1881 -23.0218 9.03714 39.5925 -0.185945 -11.792 9.41924 -0.398122 -43.0783 3.54534 -3.64115 -27.8728 -23.0051 4.76688 13.2119 33.2203 -53.1202 5.82328 9.61819 -0.917488 -1.63904 -11.2293 -2.25115 5.20227 -26.3473 -5.84855 -1.11603 38.5526 -15.5751 -2.10668 -9.45792 -0.220145 0.0462048 0.000530889 0.662642 
-2.84028 93.2353 0.308522 -8.29816 5.25954 -88.4684 7.44384 12.107 4.04237 1.57546 60.4717 13.6005 -8.81454 5.78443 0.998955 -1.37048e-009 8.75213e-006 -1.47689e-008 9.35634 13.6888 -3.89767 3.31142 0.814692 -2.57041 37.5101 1.7442 -0.0104085 27.1878 -32.5977 -18.3143 8.93454 39.7706 0.384013 -12.1612 9.38812 -0.241125 -43.6405 3.60115 -3.66507 -29.1281 -20.1195 4.74039 10.6156 33.7066 -45.4575 5.82328 9.61819 -0.917488 -1.72631 -12.4563 -3.21596 7.488 -24.2677 -6.1103 -1.19014 41.2902 -16.2279 -2.14177 -13.8751 -0.323282 0.0462048 0.000530889 0.662642 
-7.37664 93.756 -0.11963 -8.52224 6.40619 -86.8612 8.97496 3.15576 1.79433 2.65564 73.1955 14.0936 -6.7062 9.43218 0.940569 -1.37048e-009 8.75213e-006 -1.47689e-008 11.8386 13.8456 -4.15642 3.16484 1.59652 -2.10923 37.589 1.74558 -0.0123816 31.5663 -31.1943 -12.1552 8.928 39.4383 2.22868 -12.3954 9.37627 -0.227574 -44.2238 3.64203 -3.65539 -30.4208 -15.1754 3.79226 6.87229 32.8178 -36.3194 5.82328 9.61819 -0.917488 -1.44537 -13.5328 -4.73721 8.83346 -20.7921 -7.09482 -1.22358 41.3056 -16.8578 -0.616342 -17.6505 -0.295731 0.0462048 0.000530889 0.662642 
-12.1696 94.9462 -0.474454 -8.61786 6.62354 -86.5072 8.53976 -4.91683 0.889921 5.14534 81.3868 10.2893 -4.47366 5.24936 0.457443 -1.37048e-009 8.75213e-006 -1.47689e-008 13.2575 14.0049 -3.65008 2.03655 1.27951 -1.13612 37.558 1.74597 -0.00789033 35.3511 -27.222 -5.8369 8.67667 37.7899 5.43672 -12.321 9.37262 -0.155477 -44.6393 3.65935 -3.62541 -31.5659 -9.07797 3.62957 3.1364 30.4051 -27.8135 5.82328 9.61819 -0.917488 -1.10417 -13.4088 -6.07228 9.46311 -16.213 -7.4361 -1.20048 39.0755 -16.7742 0.429617 -19.3066 -0.206898 0.0462048 0.000530889 0.662642 
-17.0111 96.1809 -0.754394 -8.44389 6.34469 -87.3991 7.47948 -12.2204 1.19846 8.07057 84.765 5.39435 -3.89983 -0.253665 0.232471 -1.37048e-009 8.75213e-006 -1.47689e-008 13.9234 14.1253 -2.66295 0.687662 0.496899 0.157539 37.2988 1.74368 0.00932794 37.9079 -18.7303 0.0901371 7.39456 32.5115 10.3505 -12.5068 9.30602 0.42392 -44.8253 3.64748 -3.57406 -32.3825 -6.36094 4.77572 0.0399959 30.1238 -21.1682 5.82328 9.61819 -0.917488 -0.961319 -12.4942 -6.817 9.5382 -11.5571 -7.2831 -1.04175 36.2691 -16.0273 0.827233 -20.5437 -0.162584 0.0462048 0.000530889 0.662642 
-21.9228 97.1458 -1.00418 -8.25769 5.73398 -88.6308 6.22501 -18.771 1.70595 7.01652 84.1317 6.47851 -4.37356 -3.15887 0.177425 -1.37048e-009 8.75213e-006 -1.47689e-008 13.8946 14.0002 -1.62138 -0.43694 -0.0207813 1.29677 36.9742 1.73697 0.0213121 38.3948 -7.93941 5.32672 5.46068 24.1374 16.2745 -12.9524 9.20725 1.16434 -44.7989 3.60939 -3.50422 -31.8428 -11.8088 6.75388 -3.31261 37.2514 -15.5562 5.82328 9.61819 -0.917488 -1.06919 -11.7544 -7.13211 8.96928 -6.61168 -6.72224 -0.220231 33.0954 -15.5241 1.53055 -22.2897 -0.0683434 0.0462048 0.000530889 0.662642 
-26.8957 97.9229 -1.26556 -8.27568 4.92707 -89.7933 4.9255 -23.9659 2.21088 4.40381 79.9368 11.4622 -4.29006 -5.66485 0.0938055 -1.37048e-009 8.75213e-006 -1.47689e-008 13.3797 13.7541 -0.695461 -1.72104 -0.168483 2.1203 36.7916 1.7308 0.0224548 37.4306 -2.06843 10.3358 4.13082 18.4624 21.7092 -12.8959 9.19323 1.32846 -44.6462 3.56317 -3.43732 -30.6759 -16.9521 9.10795 -6.65317 43.9072 -10.2943 5.82328 9.61819 -0.917488 -1.31125 -11.5645 -7.172 7.9798 -1.14273 -5.34132 1.10744 29.195 -15.8064 2.3792 -23.3849 0.0586912 0.0462048 0.000530889 0.662642 
-31.7807 98.3475 -1.52297 -8.31491 4.44588 -90.9647 4.45539 -27.5151 3.17573 2.83087 72.0214 15.6268 -4.66345 -8.81667 -0.0117271 -1.37048e-009 8.75213e-006 -1.47689e-008 12.9869 13.4145 0.0281063 -2.9328 0.00846274 2.68524 36.6016 1.72676 0.0291938 37.1255 -3.96394 15.6163 3.78086 18.994 25.911 -12.1768 9.27791 0.887501 -44.5396 3.5309 -3.39033 -29.4561 -19.8845 11.8065 -9.26435 48.0403 -6.18991 5.82328 9.61819 -0.917488 -1.59062 -11.78 -6.81383 7.26622 4.00537 -4.86031 1.67934 25.5609 -14.9399 2.39028 -23.758 0.0662145 0.0462048 0.000530889 0.662642 
-36.6542 98.353 -1.81121 -8.1287 4.13254 -92.1844 4.59473 -29.4431 4.4563 1.88111 60.3746 17.2608 -5.55534 -10.0761 -0.0719178 -1.37048e-009 8.75213e-006 -1.47689e-008 12.1202 12.7093 0.693888 -3.39366 0.517837 2.99929 36.1659 1.71726 0.0442057 37.4581 -5.95296 21.1136 3.82009 19.5801 29.2691 -11.5188 9.35477 0.443907 -44.6985 3.52945 -3.36406 -28.276 -21.1968 14.8456 -10.6869 49.9424 -3.87392 5.82328 9.61819 -0.917488 -1.83291 -12.2303 -6.08822 6.76236 8.71101 -5.16078 1.6694 22.2856 -13.2922 2.13665 -24.5144 0.039907 0.0462048 0.000530889 0.662642 
-41.5248 98.1399 -2.15238 -7.84528 3.399 -93.2122 3.95055 -29.6416 4.74017 1.30639 45.6561 16.9958 -5.6966 -9.45954 -0.0488627 -1.37048e-009 8.75213e-006 -1.47689e-008 10.1447 11.8389 1.39429 -3.445 1.37655 3.1907 35.6021 1.70042 0.0530567 38.2392 -7.52735 26.115 3.67206 20.171 32.2358 -11.5916 9.34847 0.467771 -45.1515 3.55595 -3.3489 -27.0538 -21.2961 17.759 -11.4007 50.4463 -2.80925 5.82328 9.61819 -0.917488 -1.8987 -12.7864 -5.40901 5.87907 13.6751 -5.77432 1.43635 18.2368 -11.3586 2.95153 -25.5151 0.185268 0.0462048 0.000530889 0.662642 
